<?xml version="1.0" encoding="UTF-8"?>
<svg id="Camada_1" data-name="Camada 1" xmlns="http://www.w3.org/2000/svg" viewBox="0 0 333.19 186.27">
  <defs>
    <style>
      .cls-1 {
        fill: #67527d;
      }
    </style>
  </defs>
  <path class="cls-1" d="M191.93,42.89c-.02-.07-.1-.12-.17-.1-.04,0-.07.04-.09.07-5.25,10.05-8.34,20.92-9.27,32.59-.31,3.97-.52,9.48-.61,16.52-.02,1.22-.96,2.23-2.17,2.33h-.05c-1.13.1-2.12-.73-2.22-1.86,0-.03,0-.07,0-.1-.15-3.67.03-9.2.55-16.61,2.23-31.77,20.56-59.12,50.44-70.51,26.99-10.3,57.64-4.92,80.84,12.24,12.35,9.14,22.43,22.12,23.87,37.67,1.46,15.85-8.02,29.07-20.2,38.28-1.09.83-1.94,1.93-2.46,3.2-11.39,27.61-40.05,37.02-67.9,37.65-8.08.18-23.19.16-45.34-.07-.58,0-1.05.46-1.06,1.04,0,0,0,0,0,.01v48.68c0,1.19-.97,2.16-2.16,2.16h-.46c-1.12,0-2.02-.9-2.02-2.02v-49.31c0-.23-.18-.42-.41-.42-27.76-.11-41.63-.07-41.61.1,0,0,0,.01,0,.01s-.01,0-.01,0c-.03-.12-.18-.11-.45.03-.28.15-.4.48-.27.77l20.33,47.52c.47,1.1-.03,2.38-1.13,2.87l-.12.05c-1.1.51-2.41.02-2.92-1.08,0-.02-.02-.03-.02-.05l-21.16-49.64c-.15-.35-.5-.58-.88-.58h-15.08c-.38,0-.69.3-.7.68,0,.09.02.19.05.28l20.25,47.81c.48,1.12-.02,2.42-1.13,2.92l-.07.03c-.99.5-2.19.1-2.69-.88-.02-.04-.04-.08-.05-.12l-21.27-50c-.2-.47-.66-.77-1.17-.77H30.88c-.23,0-.43.13-.54.34l-25.84,50.2c-.59,1.13-1.98,1.58-3.11,1l-.15-.08c-1.1-.54-1.55-1.87-1.01-2.97,0-.01.01-.02.02-.04l24.8-47.79c.12-.21.04-.48-.18-.6-.07-.04-.14-.05-.21-.05H8.52c-.92,0-1.66-.74-1.66-1.65,0,0,0-.01,0-.02v-.85c.02-1.07.89-1.93,1.95-1.93h18.55c.23,0,.45-.13.56-.34L94.2,1.38c.56-1.08,1.87-1.54,2.98-1.05l.07.03c1.12.47,1.64,1.76,1.17,2.88-.02.04-.04.08-.06.13l-2.73,5.43c-.53,1.06-.57,2.31-.1,3.4l31.24,72.2c.43.99-.03,2.15-1.03,2.57-.08.03-.16.06-.24.09l-.31.13c-1.01.4-2.15-.07-2.58-1.06l-30.13-70.13c-.08-.18-.29-.26-.46-.18-.07.03-.13.09-.17.16l-8.26,15.97c-.34.65-.36,1.42-.07,2.09l41.03,95.49c.07.17.24.28.42.28h65.83c.28,0,.5-.22.51-.5l.81-85.62c0-.06,0-.12-.02-.18l-.17-.62ZM196.93,56.56c2.41-7.85,7.73-15.74,12.72-21.33,7.18-8.06,18.31-14.32,28.18-17.2,43.19-12.61,85.71,23.08,75.58,68.23-.04.21.09.42.3.46.12.02.24,0,.33-.08,18.82-15.64,18.85-38.68,2.67-56.19-17.02-18.4-41.84-27.67-66.57-25.63-19.61,1.62-38.84,11.54-50.88,26.85-1.07,1.37-2.2,2.65-2.25,4.25-.23,8.67-.49,15.51-.76,20.52,0,.19.15.35.35.35.15,0,.28-.09.33-.23ZM302.56,101.18c-11.38,6.42-23.39,10.91-36.04,13.48-8.35,1.69-15.11,2.73-20.3,3.12-6.11.45-17.48.6-34.13.43-.96,0-1.74-.79-1.73-1.76,0,0,0,0,0-.01v-.84c.01-1,.82-1.81,1.82-1.81,6.1,0,12.8,0,20.1-.02,11.88-.03,20.79-.98,31.72-3.13,13.86-2.73,27-7.83,39.42-15.28,3.32-1.99,3.97-3.26,4.92-6.88,3.89-14.76,2.39-28.33-4.51-40.7-9.37-16.79-27.09-27.1-46.28-27.69-17.05-.52-31.61,5.29-43.66,17.44-9.13,9.2-13.53,20.86-16.67,33.44-.91,3.63-1.3,7.14-1.15,10.53.03.75.03,16.67,0,47.76,0,.34.27.61.61.61h0c10.59-.08,20.01-.09,28.27-.04,14.11.09,23.71-.2,28.8-.87,19.98-2.64,38.14-9.76,49.23-27.34.1-.14.07-.33-.07-.43-.1-.07-.24-.08-.35,0ZM80.58,38.57c-.07-.15-.24-.22-.4-.15-.06.03-.11.07-.14.13l-47.03,90.91c-.08.15-.02.33.13.41.04.02.09.03.13.03h86.1c.17,0,.3-.13.31-.29,0-.04,0-.09-.03-.13l-39.07-90.91Z"/>
  <rect class="cls-1" x="3.87" y="41.52" width="97.14" height="4.44" rx="2.11" ry="2.11" transform="translate(-10.25 70.83) rotate(-63.2)"/>
</svg>